<?xml version="1.0" encoding="UTF-8" standalone="no"?>
<!-- Created with Inkscape (http://www.inkscape.org/) -->

<svg
   xmlns:dc="http://purl.org/dc/elements/1.1/"
   xmlns:cc="http://creativecommons.org/ns#"
   xmlns:rdf="http://www.w3.org/1999/02/22-rdf-syntax-ns#"
   xmlns:svg="http://www.w3.org/2000/svg"
   xmlns="http://www.w3.org/2000/svg"
   xmlns:sodipodi="http://sodipodi.sourceforge.net/DTD/sodipodi-0.dtd"
   xmlns:inkscape="http://www.inkscape.org/namespaces/inkscape"
   width="91.309265"
   height="74.579987"
   viewBox="0 0 91.309265 74.579987"
   id="svg2"
   version="1.1"
   inkscape:version="0.91 r13725"
   sodipodi:docname="logo.svg">
  <defs
     id="defs4" />
  <sodipodi:namedview
     id="base"
     pagecolor="#ffffff"
     bordercolor="#666666"
     borderopacity="1.0"
     inkscape:pageopacity="0.0"
     inkscape:pageshadow="2"
     inkscape:zoom="8.2"
     inkscape:cx="29.348088"
     inkscape:cy="37.900885"
     inkscape:document-units="px"
     inkscape:current-layer="layer1"
     showgrid="false"
     units="px"
     inkscape:window-width="1920"
     inkscape:window-height="995"
     inkscape:window-x="0"
     inkscape:window-y="0"
     inkscape:window-maximized="1"
     fit-margin-top="0"
     fit-margin-left="0"
     fit-margin-right="0"
     fit-margin-bottom="0" />
  <metadata
     id="metadata7">
    <rdf:RDF>
      <cc:Work
         rdf:about="">
        <dc:format>image/svg+xml</dc:format>
        <dc:type
           rdf:resource="http://purl.org/dc/dcmitype/StillImage" />
        <dc:title></dc:title>
      </cc:Work>
    </rdf:RDF>
  </metadata>
  <g
     inkscape:label="Layer 1"
     inkscape:groupmode="layer"
     id="layer1"
     transform="translate(-3.5787407,-965.68306)">
    <path
       style="fill:#ffc107;fill-opacity:1"
       d="m 24.851635,1040.0765 c -0.71491,-0.2491 -1.402219,-0.933 -1.779872,-1.7709 -0.342272,-0.7594 -0.321475,-1.0909 0.214252,-3.4168 0.084,-0.3647 0.264883,-1.2598 0.401962,-1.9892 0.481275,-2.5607 1.085302,-5.6425 1.234586,-6.299 0.08294,-0.3646 0.23971,-1.0767 0.348395,-1.5823 l 0.197609,-0.9194 1.221716,-0.5498 c 0.834247,-0.3754 1.352617,-0.5169 1.634454,-0.4461 0.730549,0.1833 0.774964,0.5444 0.330296,2.6862 -0.225165,1.0845 -0.523263,2.6059 -0.662441,3.3808 -0.139178,0.775 -0.392204,2.043 -0.562277,2.818 -0.170075,0.7749 -0.400455,1.8566 -0.511957,2.4035 -0.1115,0.547 -0.229731,1.0692 -0.262732,1.1604 -0.033,0.092 0.0057,0.269 0.08605,0.3952 0.118745,0.1864 0.312199,0.1367 1.03427,-0.2655 20.288692,-11.3031 19.536777,-10.9022 20.44813,-10.9031 0.927064,0 0.266284,-0.34 9.44844,4.848 0.729353,0.4121 2.519583,1.4221 3.978289,2.2447 2.739237,1.5444 3.831957,2.1638 6.177667,3.5021 1.418306,0.8091 1.954783,0.9033 1.930806,0.3392 -0.0076,-0.1795 -0.485872,-2.6683 -1.062761,-5.5306 -1.219411,-6.0503 -1.27396,-5.6532 0.776789,-5.6532 1.589046,0 1.738068,0.1531 2.113831,2.1709 0.15966,0.8573 0.471437,2.4911 0.692837,3.6307 0.385228,1.983 0.523593,2.706 1.155886,6.041 l 0.281065,1.4824 -0.379307,0.715 c -0.533207,1.005 -1.268187,1.4117 -2.714759,1.502 -1.13288,0.071 -1.235521,0.044 -2.507332,-0.6268 -0.729353,-0.3853 -2.221212,-1.224 -3.315242,-1.8638 -1.09403,-0.6398 -2.511296,-1.4615 -3.14948,-1.8261 -0.638184,-0.3646 -1.570595,-0.9051 -2.072026,-1.2012 -0.501429,-0.2962 -1.508434,-0.8723 -2.237788,-1.2805 -0.729353,-0.4081 -2.333101,-1.3234 -3.563884,-2.034 -1.230783,-0.7106 -2.731681,-1.5675 -3.335329,-1.9044 -0.603646,-0.3368 -1.272932,-0.7353 -1.4873,-0.8854 -0.711476,-0.4984 -0.682491,-0.509 -4.294285,1.5789 -0.866108,0.5007 -2.507152,1.4553 -3.646767,2.1212 -1.751137,1.0233 -4.323745,2.5171 -9.282676,5.3903 -0.501431,0.2906 -1.554146,0.9102 -2.339369,1.3771 -2.198623,1.3071 -3.306717,1.5903 -4.539758,1.1605 z m 56.767356,-15.7876 c -0.595986,-0.123 -1.369671,-0.3431 -1.719303,-0.4892 -0.82056,-0.3428 -1.28046,-0.3323 -2.524565,0.058 -1.524686,0.478 -2.786613,0.5683 -4.103218,0.2934 -0.927942,-0.1938 -1.270491,-0.2004 -1.823383,-0.035 -0.374435,0.1116 -1.28165,0.1943 -2.016036,0.1837 -1.167231,-0.017 -1.473985,-0.09 -2.43788,-0.5789 -1.180641,-0.5993 -1.175774,-0.5994 -2.691595,0.045 -0.905878,0.3856 -1.201526,0.4238 -3.315243,0.4272 -2.24762,0 -2.354373,-0.012 -3.39145,-0.5028 l -1.070782,-0.5065 -1.504053,0.4987 -1.504052,0.4988 -8.247656,-0.083 c -5.18634,-0.052 -8.821309,-0.019 -9.793172,0.089 -2.606317,0.2906 -5.194297,-0.2115 -6.81206,-1.3214 l -0.662666,-0.4546 -1.106964,0.5574 c -1.808748,0.9109 -3.292516,1.2288 -5.735604,1.2288 -1.791868,0 -2.354474,-0.067 -3.600835,-0.4282 -1.599033,-0.4637 -1.821461,-0.4576 -3.309116,0.092 -1.407772,0.5192 -4.091642,0.4439 -5.3108824,-0.149 -1.8700112,-0.9095 -3.8447461,-3.619 -4.0280772,-5.5269 -0.050341,-0.5238 -0.2415237,-1.1055 -0.4836919,-1.4715 -0.8164529,-1.2337 -1.0708561,-3.7369 -0.6425508,-6.3222 0.2804827,-1.6931 0.610277,-2.4348 1.7626024,-3.9639 0.9404458,-1.248 2.5311435,-2.5281 4.1338648,-3.3266 l 1.0736701,-0.535 3.319025,-0.043 c 1.825463,-0.024 5.164714,0.033 7.42056,0.1242 3.919957,0.1592 4.140108,0.1519 4.972861,-0.1646 2.252275,-0.856 5.655112,0.134 7.479646,2.176 l 0.685213,0.767 1.859994,-0.1734 c 1.276874,-0.1191 2.21229,-0.1202 2.983719,0 l 1.123722,0.1696 0.839265,-0.764 c 0.461596,-0.4202 1.341,-1.0188 1.95423,-1.3299 0.98649,-0.5007 1.338643,-0.5835 3.056144,-0.7174 1.075775,-0.084 5.377485,-0.104 9.649116,-0.044 l 7.707936,0.1067 0.701441,0.4095 c 0.709821,0.4146 0.978995,0.7524 1.297782,1.6285 0.154518,0.4247 0.315317,0.5169 1.326097,0.7603 0.63264,0.1524 1.427273,0.3961 1.765849,0.5417 0.564642,0.2429 0.674398,0.2426 1.326097,0 0.992378,-0.3742 1.124909,-0.5056 1.124909,-1.1148 0,-0.6545 0.563184,-1.5254 1.313114,-2.0309 0.543433,-0.3661 0.67295,-0.3769 4.566424,-0.3769 4.462592,0 4.880482,0.072 6.260573,1.0829 0.431975,0.3163 0.975519,0.8763 1.207874,1.2443 0.405726,0.6428 0.446853,0.6641 1.037974,0.5386 1.170206,-0.2484 3.04185,-0.1258 4.262275,0.2794 1.843597,0.6121 3.207557,1.6184 4.156325,3.0664 0.703685,1.0739 0.98346,5.3527 0.477632,7.3046 -0.878429,3.3898 -4.476017,6.6976 -8.69791,7.9973 -1.491248,0.459 -3.008818,0.5621 -4.313189,0.293 z m -68.788681,-3.3335 c 0.590633,-0.1392 1.535167,-0.5111 2.09896,-0.8263 0.563795,-0.3153 1.144628,-0.5732 1.29074,-0.5732 0.146115,0 0.656697,0.2207 1.134627,0.4904 1.414683,0.7983 2.734585,1.0584 4.844804,0.9545 2.062296,-0.1018 3.02241,-0.3927 4.768447,-1.4458 0.603871,-0.3643 1.288301,-0.6622 1.520955,-0.6622 0.25044,0 0.684435,0.2362 1.063829,0.5789 1.489555,1.3458 3.732124,1.8389 6.443739,1.4171 0.816242,-0.127 1.527084,-0.1506 1.880094,-0.062 0.312192,0.078 3.178373,0.096 6.369293,0.04 3.66529,-0.064 6.026436,-0.042 6.412054,0.062 1.036532,0.2803 3.140364,-0.083 4.513737,-0.7786 1.332982,-0.6755 1.710808,-0.723 2.271382,-0.2852 0.87027,0.6798 1.85821,1.047 3.060514,1.1379 1.529498,0.1157 2.933138,-0.1534 4.594924,-0.8808 0.710977,-0.3111 1.393904,-0.5658 1.517616,-0.5658 0.12371,0 0.535696,0.2597 0.915521,0.577 0.871779,0.7283 1.797352,0.9854 2.986241,0.8295 0.903447,-0.1184 1.861099,-0.1273 4.521156,-0.042 1.312577,0.043 1.424606,0.017 2.656236,-0.6174 1.258128,-0.6474 1.295608,-0.6557 1.737666,-0.3811 1.648744,1.0238 1.657407,1.0262 3.932805,1.0347 l 2.154907,0.01 1.288276,-0.6431 c 1.054941,-0.5267 1.565537,-0.9349 2.819066,-2.2532 1.930592,-2.0303 2.397618,-2.916 2.542279,-4.8209 0.09246,-1.2171 0.06019,-1.5228 -0.226892,-2.1549 -0.427914,-0.9421 -1.338193,-1.8557 -2.328691,-2.3372 -0.976904,-0.4749 -3.085941,-0.5058 -5.128673,-0.075 -0.751388,0.1583 -1.441374,0.2415 -1.533299,0.1846 -0.09193,-0.058 -0.16714,-0.4296 -0.16714,-0.8286 0,-1.0624 -0.236586,-1.5205 -0.98129,-1.9004 -0.590332,-0.3013 -0.968629,-0.3382 -3.446242,-0.3359 -1.530715,0 -2.886039,0.068 -3.011831,0.1474 -0.155869,0.099 -0.195464,0.3091 -0.124321,0.6605 0.05742,0.2837 0.148592,0.7288 0.202618,0.9894 0.115062,0.5548 0.02243,0.608 -1.47479,0.8473 -1.55624,0.2486 -2.63478,0.6121 -3.444403,1.1607 -0.402636,0.2728 -0.82271,0.4973 -0.9335,0.499 -0.110789,0 -0.456584,-0.2211 -0.768435,-0.4948 -0.878831,-0.7717 -1.671731,-1.0293 -3.169614,-1.0297 -0.731865,-3e-4 -1.54065,0.082 -1.797301,0.1833 -0.25665,0.1007 -0.807245,0.1839 -1.223545,0.1839 -0.569782,0 -1.076283,0.1702 -2.048758,0.6883 -1.182656,0.6302 -1.333277,0.6711 -1.781956,0.4853 -0.269558,-0.1117 -0.625101,-0.4536 -0.790094,-0.76 -0.465585,-0.8646 -0.194693,-1.2254 1.743563,-2.3229 0.91836,-0.52 1.710733,-1.0117 1.760831,-1.0928 0.05268,-0.085 -3.250613,-0.1459 -7.833835,-0.1438 -7.346921,0 -7.974073,0.026 -8.598808,0.3097 -0.913833,0.4152 -1.740443,1.1693 -2.6716,2.4374 -0.428795,0.584 -0.847713,1.0618 -0.93093,1.0618 -0.08322,0 -0.369517,-0.1836 -0.636226,-0.408 -0.988276,-0.8316 -2.508802,-0.9518 -5.266999,-0.4163 -2.108324,0.4095 -2.604034,0.3014 -3.315285,-0.7222 -0.590381,-0.8496 -1.377982,-1.5895 -2.252472,-2.1157 -0.982857,-0.5914 -2.619538,-0.5586 -4.013701,0.081 l -1.029984,0.4721 -0.595671,-0.3515 c -0.577987,-0.3409 -0.77763,-0.3513 -6.724123,-0.3513 l -6.128447,0 -1.010604,0.5102 c -2.0512387,1.0354 -3.4045327,2.9644 -3.8067874,5.4264 -0.24362,1.4908 -0.063053,2.4269 0.7072697,3.666 0.4783392,0.7695 0.5413665,1.0107 0.5589066,2.1386 0.032098,2.0638 0.8058888,3.0122 2.8507931,3.4937 0.86771,0.2043 0.832935,0.2056 2.032398,-0.077 z m -2.100886,-1.5482 c -1.1884795,-0.7467 -1.3801541,-1.7293 -0.666192,-3.4153 l 0.421198,-0.9945 -0.8184777,-0.2681 c -1.0424281,-0.3414 -1.4307688,-0.6985 -1.6516219,-1.5186 -0.2598949,-0.9652 0.069093,-2.0836 1.0399575,-3.5351 0.8317151,-1.2435 1.7235061,-2.0037 2.7683191,-2.3598 0.316789,-0.108 1.535897,-0.1921 2.784746,-0.1921 2.443065,0 3.114434,0.1839 3.294841,0.9027 0.136566,0.5442 0.05445,0.7755 -1.375427,3.8752 -1.267501,2.7477 -1.349291,3.1858 -0.547254,2.9313 0.612694,-0.1946 3.15333,-5.6216 3.15333,-6.7359 0,-0.8762 0.202951,-0.9733 2.033194,-0.9733 2.269723,0 2.676645,0.2422 2.505165,1.4919 l -0.102374,0.7458 0.558521,-0.5124 c 1.268837,-1.1641 2.716073,-1.7726 4.21548,-1.7726 2.846469,0 3.778874,2.5293 2.278328,6.1805 -1.183382,2.8794 -4.309449,5.4941 -7.447759,6.2296 -1.56905,0.3677 -3.542622,0.2596 -4.598828,-0.2516 -0.708557,-0.343 -1.905934,-1.5734 -2.143151,-2.2025 -0.04974,-0.1318 -0.461444,0.1732 -1.091991,0.8092 -1.651816,1.666 -3.468359,2.2829 -4.610009,1.5656 z m 12.878996,-4.6585 c 0.388205,-0.1244 0.391319,-0.1338 0.04925,-0.1492 -0.937952,-0.043 -1.538198,-0.6804 -1.543637,-1.6405 -0.0019,-0.3502 -0.03764,-0.3937 -0.163224,-0.1995 -0.285452,0.4418 -0.200838,1.7865 0.124322,1.9759 0.337436,0.1966 0.944645,0.2019 1.533299,0.013 z m 0.671669,-1.5655 c -0.499614,-0.5319 -0.357097,-1.1232 0.448497,-1.8612 0.460428,-0.4217 0.53147,-0.5516 0.301703,-0.5516 -0.165297,0 -0.590134,0.2896 -0.944086,0.6436 -0.496484,0.4964 -0.643546,0.773 -0.643546,1.21 0,0.6707 0.246037,0.9644 0.807976,0.9644 l 0.410148,0 -0.380692,-0.4052 z m -13.126571,-0.9305 c 0.694818,-0.4236 0.575629,-0.5893 -0.217603,-0.3024 -0.456175,0.165 -0.712832,0.1719 -1.0898642,0.03 -0.4298557,-0.1623 -0.4931706,-0.149 -0.4931706,0.1038 0,0.1592 0.049729,0.3392 0.1105084,0.4 0.2250184,0.2251 1.1497764,0.098 1.6901294,-0.2306 z m 1.514604,-3.057 c 0,-0.371 -0.06753,-0.4144 -0.644684,-0.4144 -0.375718,0 -0.799641,0.1255 -1.016098,0.3007 l -0.371413,0.3008 0.560252,-0.064 c 0.308138,-0.035 0.746734,0.011 0.974657,0.1027 0.227923,0.093 0.433053,0.1717 0.455846,0.1776 0.02279,0.01 0.04144,-0.176 0.04144,-0.4039 z m 19.657607,10.3511 c -1.620905,-0.4067 -2.420631,-1.3709 -2.414415,-2.9114 0.0071,-1.7748 1.095881,-3.6921 2.811943,-4.9518 1.033731,-0.7588 2.98265,-1.5895 3.313805,-1.4125 0.144967,0.078 0.683718,0.022 1.267375,-0.1298 1.279401,-0.3334 2.095334,-0.1287 3.028753,0.7601 0.917046,0.8732 1.125735,1.7389 0.752019,3.1195 -0.566223,2.0918 -2.131072,3.8996 -4.306069,4.9746 -0.991419,0.49 -1.410139,0.5991 -2.498111,0.6512 -0.718879,0.034 -1.598763,-0.01 -1.9553,-0.099 z m 3.727597,-4.7853 c 0.622447,-0.6225 0.65025,-1.1731 0.05923,-1.1731 -0.610331,0 -0.981532,0.2429 -1.365413,0.8936 -0.384642,0.6519 -0.334849,0.764 0.339234,0.764 0.312175,0 0.653396,-0.1709 0.966945,-0.4845 z m 3.634016,4.8371 c -0.501431,-0.034 -0.979278,-0.1288 -1.061882,-0.2107 -0.08942,-0.088 0.09827,-0.4241 0.463945,-0.8288 1.311459,-1.4517 2.526413,-3.7259 3.542076,-6.6304 0.967012,-2.7653 1.576205,-3.7386 2.691772,-4.3008 0.698061,-0.3518 4.545993,-0.6268 4.724673,-0.3377 0.0593,0.096 -0.265122,0.5098 -0.720929,0.9195 -0.920443,0.8276 -1.603548,2.0779 -3.028961,5.5444 -1.603289,3.8991 -2.341636,5.1342 -3.365801,5.6299 -0.693007,0.3355 -1.08022,0.3611 -3.244893,0.2146 z m 4.724219,0 c -0.773426,-0.1901 -0.771751,-0.3957 0.0088,-1.0828 0.415272,-0.3655 1.005574,-1.0562 1.311781,-1.5349 0.520463,-0.8136 1.595686,-3.2972 2.079985,-4.8044 0.433652,-1.3498 1.302576,-3.0424 1.902762,-3.7068 0.784973,-0.8688 1.785696,-1.1832 3.765971,-1.1832 1.78667,0 1.947198,0.1803 1.047098,1.1767 -0.653943,0.7238 -1.579668,2.1044 -1.579668,2.3557 0,0.084 0.203568,0.019 0.452374,-0.144 0.752858,-0.4934 1.708302,-0.7076 2.362677,-0.5301 1.161646,0.3153 1.658757,1.1178 1.807555,2.9179 l 0.101616,1.2291 0.649959,-0.9452 c 1.034372,-1.5043 4.16176,-3.4729 4.894757,-3.081 0.151065,0.081 0.675331,0.028 1.272175,-0.1273 1.190416,-0.3103 2.029014,-0.1445 2.876456,0.5686 0.652451,0.5489 0.858034,0.9336 1.081198,2.0229 l 0.181297,0.8851 0.618312,-0.8021 c 1.79424,-2.3277 4.861238,-3.5811 6.375507,-2.6056 0.364922,0.2351 0.390371,0.2178 0.69079,-0.4681 0.171549,-0.3917 0.364151,-1.0686 0.428,-1.5042 0.07479,-0.5102 0.223208,-0.8492 0.417208,-0.9531 0.165613,-0.088 0.972027,-0.1611 1.79203,-0.1611 1.557146,0 2.014983,0.1821 2.009339,0.7993 -0.0061,0.6697 -0.690577,2.9055 -1.391339,4.5449 -0.418563,0.9794 -0.761024,1.9303 -0.761024,2.1135 0,0.6064 0.47591,0.3463 1.134946,-0.6201 0.8903,-1.3054 1.654213,-2.0541 2.816122,-2.76 1.285566,-0.7809 2.204516,-1.1044 2.564546,-0.903 0.184719,0.1038 0.527856,0.07 1.030504,-0.1007 1.231828,-0.4182 1.899744,-0.3066 3.097159,0.5171 2.443441,1.6811 0.474814,6.4321 -3.434423,8.2887 -1.570176,0.7456 -3.016513,0.9005 -4.467952,0.4785 -0.53014,-0.1541 -1.144238,-0.3983 -1.364659,-0.5427 -0.419497,-0.2749 -1.044719,-1.341 -1.044719,-1.7815 0,-0.1459 -0.456234,0.2086 -1.056645,0.821 -1.199591,1.2234 -2.161595,1.7341 -3.276247,1.7395 -0.928118,0 -1.396316,-0.3285 -1.696764,-1.2063 l -0.215526,-0.6296 -0.392276,0.5724 c -0.547143,0.7987 -1.191185,1.1298 -2.37417,1.221 -0.875119,0.068 -1.097907,0.023 -1.597145,-0.3168 -0.773682,-0.527 -1.06596,-1.4028 -0.862394,-2.5847 0.183003,-1.0622 0.017,-1.2284 -0.458606,-0.4588 -0.561965,0.9094 -1.92169,2.0264 -3.288322,2.7014 -1.19009,0.588 -1.346285,0.6222 -2.846483,0.6222 -1.377563,0 -1.696208,-0.057 -2.411573,-0.4243 -1.042071,-0.5362 -1.563618,-1.387 -1.567479,-2.5573 l -0.0027,-0.8265 -0.601914,0.9094 c -1.399425,2.1145 -2.524658,2.8313 -4.619591,2.943 -1.229195,0.065 -1.374063,0.037 -1.982521,-0.3785 -0.517497,-0.354 -0.710448,-0.4094 -0.911692,-0.2613 -0.705758,0.519 -1.374318,0.6776 -2.777815,0.6591 -0.800658,-0.01 -1.604928,-0.057 -1.787266,-0.1007 z m 18.801277,-4.7847 c 0.354428,-0.2983 0.510005,-0.5764 0.510005,-0.9117 0,-0.5527 -0.256844,-0.6154 -0.982856,-0.24 -0.47597,0.2461 -1.224909,1.3069 -1.047775,1.4841 0.237963,0.2379 1.055058,0.059 1.520626,-0.3324 z m 22.091446,-0.017 c 0.468947,-0.4493 0.613693,-1.1006 0.289149,-1.3013 -0.36243,-0.224 -1.164105,0.2994 -1.489164,0.9722 -0.178318,0.369 -0.324213,0.6943 -0.324213,0.7228 0,0.028 0.238345,0.052 0.529655,0.052 0.348948,0 0.688278,-0.152 0.994573,-0.4454 z m -32.521739,-0.2176 c 0.18234,-0.1823 0.331525,-0.4849 0.331525,-0.6722 0,-0.3029 -0.08712,-0.335 -0.787369,-0.29 -0.679807,0.044 -0.794824,0.1027 -0.841919,0.4355 -0.03,0.2117 -0.01369,0.4915 0.03624,0.6216 0.132462,0.3451 0.877465,0.2891 1.261526,-0.094 z m 21.64667,-0.082 c 0.139143,-0.5544 -0.01834,-0.9122 -0.401566,-0.9122 -0.446749,0 -1.187892,0.6282 -1.187892,1.0066 0,0.268 0.119832,0.3196 0.742772,0.3196 0.653869,0 0.755209,-0.05 0.846686,-0.414 z M 12.387189,999.28961 c -1.658805,-1.6464 -3.1079834,-3.21542 -3.2203972,-3.48682 -0.157291,-0.37979 -0.1611721,-0.69959 -0.016843,-1.38759 0.331687,-1.58138 1.0452612,-2.24527 2.6064822,-2.42497 0.455845,-0.0529 2.619041,-0.3239 4.8071,-0.60306 2.188058,-0.27926 7.331826,-0.9211 11.430596,-1.42648 4.09877,-0.50538 7.466331,-0.93439 7.483473,-0.95338 0.06609,-0.0737 1.071359,-2.28398 1.975718,-4.34449 0.520179,-1.1852 1.156481,-2.60247 1.414004,-3.14948 0.257525,-0.54702 0.856288,-1.88969 1.330583,-2.98372 0.474298,-1.09403 1.138259,-2.58588 1.47547,-3.31524 0.337212,-0.72935 0.859525,-1.88554 1.160696,-2.56931 1.53328,-3.4811 2.48735,-5.30255 3.096546,-5.91175 0.632308,-0.63231 1.59406,-1.05026 2.416781,-1.05026 0.617199,0 1.593247,0.45463 2.065651,0.96217 0.433201,0.4654 1.330222,2.1627 2.119652,4.0107 0.470722,1.10193 1.015584,2.30952 3.403011,7.54216 0.748733,1.64105 1.425668,3.15247 1.504297,3.35871 0.213998,0.56129 1.84026,4.21378 2.675248,6.00846 l 0.733405,1.57634 2.473104,0.29855 c 1.360206,0.16428 3.480107,0.40576 4.710891,0.53662 1.230784,0.13086 3.05831,0.34536 4.061171,0.47664 1.002861,0.13127 2.308237,0.28476 2.900836,0.34121 0.5926,0.056 1.6369,0.17174 2.320669,0.25643 0.683769,0.0851 2.25022,0.26825 3.481004,0.40803 5.310227,0.60311 5.792624,0.7459 6.44518,1.90697 0.412664,0.73417 0.445637,1.44118 0.105214,2.25593 -0.234181,0.56051 -3.455566,3.92543 -5.359486,5.59832 l -0.881114,0.7742 -2.185484,-0.045 c -1.869426,-0.04 -2.185481,-0.084 -2.185481,-0.3102 0,-0.1453 1.435915,-1.5873 3.190921,-3.20469 1.755006,-1.6173 3.19092,-3.0304 3.19092,-3.14019 0,-0.13685 -1.056072,-0.31701 -3.356682,-0.57274 -1.846176,-0.2051 -4.289095,-0.48327 -5.428708,-0.61809 -1.139615,-0.13463 -3.041735,-0.35355 -4.226934,-0.48624 -7.447949,-0.83394 -9.672718,-1.09013 -10.136626,-1.16737 -0.287336,-0.0482 -0.827515,-0.36468 -1.200398,-0.70411 -0.571824,-0.52043 -0.965028,-1.25297 -2.511439,-4.67836 -1.008409,-2.23359 -1.983096,-4.35949 -2.165971,-4.72417 -0.182875,-0.36468 -1.22864,-2.63976 -2.323922,-5.05575 -3.183763,-7.02277 -3.252826,-7.15963 -3.582024,-7.0988 -0.344325,0.0636 -0.792216,0.94213 -2.943173,5.77271 -0.872808,1.96013 -1.876468,4.19792 -2.230357,4.97286 -0.353889,0.77494 -1.070354,2.37869 -1.592146,3.56389 -0.521791,1.18519 -1.002285,2.2295 -1.067763,2.32062 -0.06548,0.0913 -0.510587,1.06098 -0.989131,2.15498 -0.894884,2.04591 -1.379994,2.73643 -2.243703,3.19379 -0.337181,0.17858 -4.179715,0.72518 -11.934871,1.69747 -6.934561,0.86964 -11.437583,1.50257 -11.437583,1.60762 0,0.0955 1.417267,1.48938 3.149479,3.09788 1.732214,1.60849 3.173083,3.03219 3.201933,3.16409 0.06927,0.3165 -0.314129,0.3837 -2.704646,0.4742 l -1.989145,0.076 -3.016008,-2.99349 z"
       id="path3358"
       inkscape:connector-curvature="0" />
  </g>
</svg>
